<svg t="1718327295562" class="icon" viewBox="0 0 1024 1024" version="1.1" xmlns="http://www.w3.org/2000/svg" p-id="962" width="200" height="200"><path d="M451.11296 704.08192c181.248 0 328.21248 58.40896 328.21248 130.4576 0 72.04864-146.944 130.4576-328.21248 130.4576C269.824 964.99712 122.88 906.58816 122.88 834.53952c0-72.04864 146.944-130.4576 328.23296-130.4576z m161.83296 72.64256a37.6832 37.6832 0 1 0 0 75.32544 37.6832 37.6832 0 0 0 0-75.32544z" fill="#38D36A" p-id="963"></path><path d="M241.43872 98.44736v451.82976h586.1376c49.07008 0 72.9088-60.70272 37.2736-94.8224l-125.15328-119.72608a16.60928 16.60928 0 0 1 0-23.9616l123.88352-118.51776c35.6352-34.11968 11.79648-94.8224-37.2736-94.8224H241.4592z" fill="#69F8AF" p-id="964"></path><path d="M327.53664 852.45952a152.82176 152.82176 0 0 1-41.73824 5.44768c-16.5888 0-31.92832-2.31424-44.35968-6.2464V98.7136c0-20.5824 19.27168-37.2736 43.04896-37.2736 23.7568 0 43.04896 16.6912 43.04896 37.2736v753.74592z" fill="#5076FF" p-id="965"></path></svg>